<svg width="39" height="50" viewBox="0 0 39 50" xmlns="http://www.w3.org/2000/svg">
<path d="M19.698 0H19.5L0 2.1V38.3L19.5 50L39 38.3V2.1L19.698 0ZM36.5254 36.8L19.5 47L2.47462 36.8V22L19.401 32.2V34L7.8198 27V28.8L19.5 35.9V37.8L7.8198 30.8V32.6L19.5 39.6L31.2792 32.5V24.9L36.5254 21.7V36.8V36.8ZM36.4264 19.8L31.7741 22.6L29.5964 23.9L19.401 17.8V19.6L28.1117 24.9H28.0127L27.8147 25L26.5279 25.7L19.302 21.4V23.2L25.0431 26.6L23.6574 27.5L19.401 24.9V26.7L22.2716 28.4L19.401 30.1L2.5736 20L19.401 9.8L36.4264 19.8V19.8ZM36.5254 18L19.401 7.8L2.47462 18V4.4L19.5 2.6L36.5254 4.4V18V18Z"/>
</svg>
